<?xml version="1.0" encoding="UTF-8" standalone="no"?>
<svg
   xmlns:dc="http://purl.org/dc/elements/1.1/"
   xmlns:cc="http://creativecommons.org/ns#"
   xmlns:rdf="http://www.w3.org/1999/02/22-rdf-syntax-ns#"
   xmlns:svg="http://www.w3.org/2000/svg"
   xmlns="http://www.w3.org/2000/svg"
   xmlns:xlink="http://www.w3.org/1999/xlink"
   xmlns:sodipodi="http://sodipodi.sourceforge.net/DTD/sodipodi-0.dtd"
   xmlns:inkscape="http://www.inkscape.org/namespaces/inkscape"
   width="250"
   height="250"
   viewBox="0 0 66.145833 66.145838"
   version="1.1"
   id="svg8"
   inkscape:version="1.0.1 (3bc2e813f5, 2020-09-07)"
   sodipodi:docname="logo2.svg">
  <defs
     id="defs2">
    <clipPath
       clipPathUnits="userSpaceOnUse"
       id="clipPath864">
      <use
         x="0"
         y="0"
         xlink:href="#g860"
         id="use866"
         width="100%"
         height="100%" />
    </clipPath>
  </defs>
  <sodipodi:namedview
     id="base"
     pagecolor="#ffffff"
     bordercolor="#666666"
     borderopacity="1.0"
     inkscape:pageopacity="0.0"
     inkscape:pageshadow="2"
     inkscape:zoom="1.4"
     inkscape:cx="-4.5606821"
     inkscape:cy="57.19097"
     inkscape:document-units="px"
     inkscape:current-layer="layer4"
     inkscape:document-rotation="0"
     showgrid="false"
     units="px"
     inkscape:snap-grids="true"
     inkscape:window-width="1920"
     inkscape:window-height="1017"
     inkscape:window-x="-8"
     inkscape:window-y="-8"
     inkscape:window-maximized="1" />
  <metadata
     id="metadata5">
    <rdf:RDF>
      <cc:Work
         rdf:about="">
        <dc:format>image/svg+xml</dc:format>
        <dc:type
           rdf:resource="http://purl.org/dc/dcmitype/StillImage" />
        <dc:title></dc:title>
      </cc:Work>
    </rdf:RDF>
  </metadata>
  <g
     inkscape:groupmode="layer"
     id="layer5"
     inkscape:label="NEVVIDITELNE"
     style="display:none"
     sodipodi:insensitive="true">
    <circle
       style="display:inline;fill:#ffffff;fill-opacity:1;stroke:#000000;stroke-width:0.264583;stroke-miterlimit:4;stroke-dasharray:none;stroke-opacity:1"
       id="circle970"
       cx="36.692802"
       cy="15.11078"
       transform="rotate(-137.29953)"
       r="30.427084" />
    <path
       style="display:inline;fill:none;stroke:#000000;stroke-width:0.53684px;stroke-linecap:butt;stroke-linejoin:miter;stroke-opacity:1"
       d="m -64.812836,-87.802059 c 0,0 -8.000555,43.15729 50.680535,43.938425 32.73158,0.435731 46.571151,-63.117676 46.571151,-63.117676"
       id="path1019"
       sodipodi:nodetypes="csc" />
  </g>
  <g
     inkscape:label="Vrstva 1"
     inkscape:groupmode="layer"
     id="layer1"
     style="display:inline"
     sodipodi:insensitive="true">
    <rect
       style="fill:#000000;fill-opacity:1;stroke:#ffffff;stroke-width:2.64583;stroke-miterlimit:4;stroke-dasharray:none;stroke-opacity:1"
       id="rect844"
       width="82.209824"
       height="82.398811"
       x="-7.937501"
       y="-7.7485113"
       ry="15.152291" />
    <circle
       style="fill:#000000;fill-opacity:1;stroke:#ffffff;stroke-width:0.264583;stroke-miterlimit:4;stroke-dasharray:none;stroke-opacity:1"
       id="path10"
       cx="33.261906"
       cy="32.694942"
       r="30.427084" />
    <circle
       style="fill:#ffffff;fill-opacity:1;stroke:#ffffff;stroke-width:0.529167;stroke-miterlimit:4;stroke-dasharray:none;stroke-opacity:1"
       id="path848"
       cx="33.356392"
       cy="32.505959"
       r="18.142857" />
  </g>
  <g
     inkscape:groupmode="layer"
     id="layer2"
     inkscape:label="medvěd"
     style="display:inline"
     sodipodi:insensitive="true">
    <path
       style="fill:#000000;fill-opacity:1;stroke:#000000;stroke-width:0.279575px;stroke-linecap:round;stroke-linejoin:miter;stroke-opacity:1"
       d="m 22.593091,24.52213 0.415085,1.62926 c 0,0 0.93585,1.055328 2.236889,1.478463 1.301036,0.423133 2.089089,0.574063 2.089089,0.574063 0,0 1.528546,-1.253842 1.945403,-3.340507"
       id="path868" />
    <path
       style="fill:#000000;fill-opacity:1;stroke:#000000;stroke-width:0.278053px;stroke-linecap:round;stroke-linejoin:miter;stroke-opacity:1"
       d="m 29.279557,24.863409 c -1.053407,-0.169029 -2.29546,-0.677244 -2.29546,-0.677244 l -1.653143,0.02027 -0.719097,0.366735 -2.020835,-0.05276 2.960407,1.062505 z"
       id="path870" />
    <path
       style="fill:#000000;fill-opacity:1;stroke:#000000;stroke-width:0.235712px;stroke-linecap:round;stroke-linejoin:round;stroke-opacity:1"
       d="m 27.89317,24.426367 c 0,0 0.236046,-0.508507 -0.09707,-0.746441 -0.333124,-0.237936 -0.850112,0.07456 -0.778982,0.67283"
       id="path872" />
    <path
       style="fill:#fffffd;fill-opacity:1;stroke:#000000;stroke-width:1.11614;stroke-linecap:square;stroke-linejoin:miter;stroke-miterlimit:4;stroke-dasharray:26.7873, 26.7873;stroke-dashoffset:0;stroke-opacity:1"
       id="path905"
       sodipodi:type="arc"
       sodipodi:cx="-42.448929"
       sodipodi:cy="26.980467"
       sodipodi:rx="4.8831639"
       sodipodi:ry="4.5887041"
       sodipodi:start="0"
       sodipodi:end="1.6271397"
       sodipodi:open="true"
       sodipodi:arc-type="arc"
       d="m -37.565765,26.980467 a 4.8831639,4.5887041 0 0 1 -1.528877,3.334813 4.8831639,4.5887041 0 0 1 -3.629275,1.246609"
       transform="matrix(-0.17135735,-0.98520894,0.99593086,-0.09012071,0,0)" />
    <path
       style="fill:#000000;fill-opacity:1;stroke:#000000;stroke-width:0.264583;stroke-linecap:round;stroke-linejoin:round;stroke-miterlimit:4;stroke-dasharray:none;stroke-opacity:1"
       d="m 37.950822,37.618137 c 9.36834,-7.258674 2.50003,-14.525424 -3.000184,-12.496842 -2.174074,0.801839 -4.701079,0.02362 -4.701079,0.02362 0,0 -0.04725,0.803199 -0.566963,1.559152 0,0 2.598586,1.842634 4.819196,0.377976 2.220611,-1.464658 4.157739,0.0945 4.157739,0.0945 l 0.09449,1.228423 -1.370164,0.236238 c 0,0 -0.405904,-1.195883 -2.362351,-0.330729 -2.241661,0.991277 -2.247182,1.026658 -5.858631,-0.850447 0,0 0.09449,-6e-6 -0.897694,1.086676 0,0 5.102679,1.133928 -0.377976,4.535714 0,0 -1.181176,1.653646 2.929315,-0.47247 0,0 0.8032,-0.377976 2.362352,0.09449 0,0 -1.889884,2.456858 4.77195,4.913699 z"
       id="path877"
       sodipodi:nodetypes="csccscccsccccccc" />
    <ellipse
       style="fill:#000000;fill-opacity:1;stroke:#ffffff;stroke-width:0.264583;stroke-linecap:round;stroke-linejoin:round;stroke-miterlimit:4;stroke-dasharray:none;stroke-opacity:1"
       id="path879"
       cx="14.107181"
       cy="34.412113"
       rx="0.47247025"
       ry="2.0079987"
       transform="rotate(-33.663185)" />
    <path
       style="fill:#000000;fill-opacity:1;stroke:#000000;stroke-width:0.264583px;stroke-linecap:butt;stroke-linejoin:miter;stroke-opacity:1"
       d="m 30.202314,19.900495 1.039435,-0.637834 c 0,0 0.68508,0.283481 1.063056,1.700892 l -0.968563,0.685082 z"
       id="path881"
       sodipodi:nodetypes="ccccc" />
    <path
       style="fill:#000000;fill-opacity:1;stroke:#000000;stroke-width:0.264583;stroke-linecap:round;stroke-linejoin:miter;stroke-miterlimit:4;stroke-dasharray:none;stroke-opacity:1"
       d="m 31.802806,18.94965 c 0,0 0.803199,0.401598 1.021715,1.694985 l 0.897696,-0.531528 c 0,0 -0.124024,-1.240235 -1.133929,-1.67727 z"
       id="path883"
       sodipodi:nodetypes="ccccc" />
    <path
       style="fill:#fffffd;fill-opacity:1;stroke:#000000;stroke-width:1.11614;stroke-linecap:square;stroke-linejoin:miter;stroke-miterlimit:4;stroke-dasharray:26.7873, 26.7873;stroke-dashoffset:0;stroke-opacity:1"
       id="path897"
       sodipodi:type="arc"
       sodipodi:cx="-47.156219"
       sodipodi:cy="-21.108528"
       sodipodi:rx="4.8831639"
       sodipodi:ry="4.5887041"
       sodipodi:start="0"
       sodipodi:end="1.6271397"
       sodipodi:open="true"
       sodipodi:arc-type="arc"
       d="m -42.273056,-21.108528 a 4.8831639,4.5887041 0 0 1 -1.528877,3.334813 4.8831639,4.5887041 0 0 1 -3.629275,1.246609"
       transform="matrix(-0.89988779,-0.43612148,0.50833326,-0.86116044,0,0)" />
    <circle
       style="fill:#fffffd;fill-opacity:1;stroke:#000000;stroke-width:0.899353;stroke-linecap:round;stroke-linejoin:miter;stroke-miterlimit:4;stroke-dasharray:none;stroke-opacity:1"
       id="path895"
       cx="31.47798"
       cy="39.082787"
       r="3.2922862" />
    <rect
       style="fill:#fffffd;fill-opacity:1;stroke:#000000;stroke-width:1.05833;stroke-linecap:square;stroke-linejoin:bevel;stroke-miterlimit:4;stroke-dasharray:25.3999, 25.3999;stroke-dashoffset:0;stroke-opacity:1"
       id="rect899"
       width="9.9645167e-06"
       height="1.5591503"
       x="10.987714"
       y="42.50956"
       ry="0"
       rx="0"
       transform="rotate(-26.09043)" />
    <path
       style="fill:#000000;fill-opacity:1;stroke:#000000;stroke-width:0.264583px;stroke-linecap:round;stroke-linejoin:round;stroke-opacity:1"
       d="m 38.309232,35.560221 c 0,0 0.944939,1.370165 2.220609,1.181176 0,0 -1.37017,0.850462 -2.645836,0.141749 -1.275666,-0.708713 0.425227,-1.322925 0.425227,-1.322925 z"
       id="path903"
       sodipodi:nodetypes="ccsc" />
    <circle
       style="fill:#fffffd;fill-opacity:1;stroke:#000000;stroke-width:0.79375;stroke-linecap:round;stroke-linejoin:miter;stroke-miterlimit:4;stroke-dasharray:none;stroke-opacity:1"
       id="circle907"
       cx="38.659527"
       cy="41.019917"
       r="1.5879453" />
    <animateTransform
       attributeName="transform"
       type="translate"
       dur="0.8s"
       fill="freeze"
       values="0,-0.3;0,1;0,-0.3"
       repeatCount="indefinite" />
  </g>
  <g
     inkscape:groupmode="layer"
     id="layer3"
     inkscape:label="noha"
     sodipodi:insensitive="true"
     style="display:inline">
    <path
       style="fill:#000000;fill-opacity:1;stroke:#000000;stroke-width:0.396875;stroke-linecap:round;stroke-linejoin:round;stroke-miterlimit:4;stroke-dasharray:none;stroke-opacity:1;paint-order:normal"
       d="m 30.745769,39.608573 0.267269,0.668173 2.605879,-1.069078 -0.534541,-1.603615 c 0,0 7.634452,0.838237 5.813114,-4.944488 -2.522966,-4.988465 -6.8053,-0.144115 -7.283092,3.60814 l -0.434315,1.369756 0.434312,1.436574 z"
       id="path923"
       sodipodi:nodetypes="ccccccccc" />
    <animateTransform
       attributeName="transform"
       attributeType="XML"
       type="translate"
       values="1;0;1"
       dur="0.8s"
       repeatCount="indefinite" />
  </g>
  <g
     inkscape:groupmode="layer"
     id="layer4"
     inkscape:label="napis"
     style="display:inline"
     sodipodi:insensitive="true">
    <g
       aria-label="BLACK BEAR COFFE"
       id="text929"
       style="font-style:normal;font-variant:normal;font-weight:bold;font-stretch:normal;font-size:10.5833px;line-height:1.25;font-family:Cambria;-inkscape-font-specification:'Cambria Bold';fill:#ffffff;fill-opacity:1;stroke:#000000;stroke-width:0.264583;stroke-opacity:1"
       inkscape:transform-center-x="-0.37797622"
       inkscape:transform-center-y="11.717263" />
    <g
       inkscape:label="Clip"
       id="g860">
      <g
         aria-label="BLACK BEAR TEA"
         transform="matrix(0.51514091,-0.51987118,0.52040519,0.50957487,60.843733,42.919429)"
         id="text974"
         style="font-style:normal;font-weight:normal;font-size:10.5833px;line-height:1.25;font-family:sans-serif;display:inline;fill:#ffffff;fill-opacity:1;stroke:none;stroke-width:0.264547;stroke-miterlimit:4;stroke-dasharray:none">
        <path
           d="m -36.38666,-63.228416 q 0.457619,-0.03505 0.802603,0.09282 0.345593,0.120587 0.582496,0.400754 0.383716,0.453792 0.356177,1.133519 -0.02972,0.837218 -0.860527,1.607407 -0.457448,0.427413 -1.321625,1.158142 l -1.953278,1.651648 -0.152877,-0.188799 -0.639421,-0.7722 -1.262767,-1.517389 -1.403836,-1.628196 -1.095645,-1.279728 2.115065,-1.788451 q 0.793149,-0.67067 1.112457,-0.893297 0.319917,-0.229911 0.719015,-0.398193 0.425501,-0.177074 0.891013,-0.218794 0.465512,-0.04172 0.834172,0.06613 0.576201,0.169217 0.976601,0.642739 0.360359,0.42617 0.44151,0.946317 0.08115,0.520146 -0.141133,0.985569 z m -0.232874,0.372866 q -0.139649,0.178991 -0.285652,0.302448 -0.311735,0.263596 -0.591843,0.324496 -0.276162,0.05756 -0.416302,-0.108169 -0.07674,-0.09076 -0.01361,-0.144145 0.04735,-0.04004 0.163585,-0.07065 0.389059,-0.09212 0.708686,-0.362389 0.580064,-0.490489 0.488962,-1.198477 -0.05417,-0.448219 -0.367814,-0.819145 -0.477142,-0.56428 -1.25549,-0.596404 -0.558648,-0.02841 -1.10282,0.208406 -0.540226,0.233478 -1.191318,0.784027 l -0.217031,0.183516 1.978322,2.38763 2.135784,2.477808 0.358478,-0.296353 q 0.587956,-0.497163 0.862089,-0.837242 0.270796,-0.344026 0.354361,-0.685383 0.169566,-0.711845 -0.257527,-1.216935 -0.216883,-0.256491 -0.554904,-0.336109 -0.337411,-0.0869 -0.795959,0.0031 z"
           style="font-style:normal;font-variant:normal;font-weight:normal;font-stretch:normal;font-family:Broadway;-inkscape-font-specification:Broadway;stroke-width:0.264547;stroke-miterlimit:4;stroke-dasharray:none"
           id="path871" />
        <path
           d="m -33.135912,-69.692254 0.458682,0.978014 0.741821,1.552852 0.559496,1.124213 1.194482,2.378299 0.336061,-0.159767 1.970418,-1.005099 0.359308,-0.18274 q 0.273512,-0.134719 0.35343,0.02753 0.07078,0.143709 -0.07071,0.230685 -0.03017,0.02062 -0.20868,0.114307 l -5.428512,2.673833 -0.853775,-1.768451 -0.522755,-1.084706 -0.59354,-1.228416 -0.93646,-1.854454 -0.191735,-0.400962 z"
           style="font-style:normal;font-variant:normal;font-weight:normal;font-stretch:normal;font-family:Broadway;-inkscape-font-specification:Broadway;stroke-width:0.264547;stroke-miterlimit:4;stroke-dasharray:none"
           id="path873" />
        <path
           d="m -24.13138,-73.16516 5.568752,6.480251 -3.506289,0.728482 -0.67303,-0.826039 -1.700018,0.353204 -1.498687,0.306096 -0.25403,0.0475 -0.205686,0.686648 q -0.08891,0.308762 -0.135961,0.387151 -0.04094,0.0824 -0.126951,0.100268 -0.172026,0.03574 -0.203562,-0.116047 -0.01367,-0.06578 0.04567,-0.262833 0.06335,-0.203169 0.447182,-1.327956 l 1.989871,-5.791688 z m -0.884992,3.640948 -0.575322,1.676537 -0.4529,1.376645 1.522079,-0.295122 1.51978,-0.33159 z"
           style="font-style:normal;font-variant:normal;font-weight:normal;font-stretch:normal;font-family:Broadway;-inkscape-font-specification:Broadway;stroke-width:0.264547;stroke-miterlimit:4;stroke-dasharray:none"
           id="path875" />
        <path
           d="m -15.221281,-73.301626 -0.195608,3.658713 -0.118362,3.108766 q 0.266751,0.04859 0.442262,0.05673 0.505883,0.02347 1.045959,-0.132535 0.540075,-0.156006 0.962249,-0.44681 0.272605,-0.189107 0.566924,-0.51171 0.299481,-0.322363 0.484678,-0.634508 0.106701,-0.181285 0.220267,-0.176016 0.170348,0.0079 0.163642,0.152441 -0.0072,0.154863 -0.282531,0.514558 -0.269946,0.354772 -0.588159,0.63488 -0.690203,0.604281 -1.594737,0.810629 -0.543801,0.124793 -1.03936,0.101802 -0.72269,-0.03353 -1.436173,-0.377021 -1.143878,-0.544522 -1.703668,-1.636169 -0.46493,-0.906184 -0.418949,-1.897302 0.04694,-1.011767 0.615143,-1.88554 0.606972,-0.92888 1.657694,-1.387104 0.765265,-0.32662 1.632494,-0.286386 1.486677,0.06897 2.524012,1.125871 0.493935,0.504021 0.484116,0.715666 -0.0026,0.05678 -0.05641,0.100847 -0.05378,0.04406 -0.115721,0.04119 -0.103242,-0.0048 -0.23844,-0.212816 -0.415439,-0.634883 -1.126767,-1.024834 -0.711088,-0.395114 -1.521534,-0.432713 -0.190996,-0.0089 -0.363021,0.01937 z"
           style="font-style:normal;font-variant:normal;font-weight:normal;font-stretch:normal;font-family:Broadway;-inkscape-font-specification:Broadway;stroke-width:0.264547;stroke-miterlimit:4;stroke-dasharray:none"
           id="path878" />
        <path
           d="m -5.2708205,-70.14336 0.2872238,1.716366 q 0.2508505,1.478741 0.4546501,2.522355 0.2037995,1.043613 0.3290651,1.469915 0.074945,0.270829 0.052592,0.34505 -0.056628,0.188028 -0.3139288,0.110537 -0.1138062,-0.03428 -0.1458821,-0.124888 -0.028618,-0.08418 -0.1067901,-0.577249 l -0.1145453,-0.730697 -0.1824013,-1.150504 -0.1701178,-1.06585 -0.1273641,-0.777733 -0.2778628,-1.675768 -1.0694243,0.271582 -0.2254987,0.730828 -0.1475305,0.489862 -0.9319723,3.184128 -0.069562,0.248895 -3.0282344,-0.912007 1.3023252,-4.216732 0.3522241,-1.205368 0.2976217,-1.059905 0.081961,-0.272145 3.0282344,0.912006 -0.2582254,0.785735 -0.2940483,0.95844 0.9981255,-0.24988 q 0.8456316,-0.209456 1.5180222,-0.417118 0.6758484,-0.201224 0.8595209,-0.237655 0.1836726,-0.03643 0.3222193,0.0053 0.2622491,0.07898 0.2130722,0.242268 -0.025334,0.08412 -0.1174374,0.121142 -0.085666,0.03357 -0.3851699,0.07829 -0.3564362,0.05456 -1.6129909,0.356136 z"
           style="font-style:normal;font-variant:normal;font-weight:normal;font-stretch:normal;font-family:Broadway;-inkscape-font-specification:Broadway;stroke-width:0.264547;stroke-miterlimit:4;stroke-dasharray:none"
           id="path880" />
        <path
           d="m 5.1280243,-61.508553 q 0.140943,0.436783 0.09717,0.802089 -0.036549,0.364198 -0.2536471,0.659976 -0.3516381,0.479079 -1.0190021,0.611033 -0.8210095,0.166616 -1.7639181,-0.461366 -0.5224199,-0.344989 -1.43475134,-1.014631 l -2.06211896,-1.513572 0.1478789,-0.19274 0.60152999,-0.802068 1.18054784,-1.5822 1.25534917,-1.745244 0.9884858,-1.364198 2.2329208,1.63894 q 0.8373453,0.614602 1.1283835,0.873093 0.2982618,0.257382 0.5550905,0.606147 0.2715427,0.372386 0.4208175,0.815284 0.1492748,0.442898 0.1304977,0.82655 -0.029982,0.599787 -0.3969084,1.099694 -0.3302341,0.449917 -0.8170485,0.650291 -0.4868145,0.200373 -0.9912777,0.09292 z m -0.4169385,-0.139362 q -0.206653,-0.09399 -0.3607912,-0.207125 -0.3291059,-0.24156 -0.453734,-0.499701 -0.1204623,-0.255084 0.00796,-0.430052 0.070328,-0.09582 0.1369819,-0.04689 0.049991,0.03669 0.1068974,0.142564 0.1804266,0.356789 0.5178642,0.604465 0.6123869,0.449485 1.279525,0.19557 0.4231768,-0.15734 0.7106028,-0.548934 0.4372544,-0.595723 0.2867275,-1.360052 -0.1028343,-0.549837 -0.4601781,-1.023661 -0.3531779,-0.470766 -1.0405509,-0.97529 l -0.2291244,-0.168175 -1.8596291,2.481192 -1.9105432,2.655359 0.371873,0.279361 q 0.6207187,0.4556 1.0154117,0.642737 0.3977507,0.182971 0.7491839,0.18451 0.731761,-0.0014 1.1231495,-0.53459 0.198752,-0.270783 0.1972332,-0.618051 0.0057,-0.348375 -0.1888613,-0.773235 z"
           style="font-style:normal;font-variant:normal;font-weight:normal;font-stretch:normal;font-family:Broadway;-inkscape-font-specification:Broadway;stroke-width:0.264547;stroke-miterlimit:4;stroke-dasharray:none"
           id="path882" />
        <path
           d="m 10.40042,-58.464012 q -0.18868,0.144959 -0.4498576,0.364299 l -0.2374347,0.1994 -2.7072351,2.320805 1.1424411,1.328213 0.8094732,0.939768 q 0.196077,0.233478 0.053616,0.353118 -0.1187174,0.0997 -0.2342465,-0.0057 -0.027221,-0.02438 -0.2837517,-0.321804 l -3.7753136,-4.49543 0.2091,-0.168856 1.3250429,-1.106038 1.4299867,-1.173927 2.4308623,-2.095452 3.52274,4.194679 q 0.235957,0.280965 0.257319,0.330507 0.05269,0.110957 -0.05811,0.20401 -0.138503,0.116317 -0.28473,-0.0578 l -0.02326,-0.0277 -1.637292,-2.005843 -1.240039,1.014406 0.358287,0.434663 1.186912,1.365096 0.259854,0.301384 q 0.13958,0.166204 0.155083,0.240912 0.01883,0.07867 -0.06428,0.148455 -0.154332,0.12961 -0.373673,-0.131568 l -0.254629,-0.319269 z"
           style="font-style:normal;font-variant:normal;font-weight:normal;font-stretch:normal;font-family:Broadway;-inkscape-font-specification:Broadway;stroke-width:0.264547;stroke-miterlimit:4;stroke-dasharray:none"
           id="path884" />
        <path
           d="m 17.553271,-52.201597 -4.968651,6.951054 -1.542059,-3.232151 0.642118,-0.85029 -0.747665,-1.567104 -0.653993,-1.382768 -0.106596,-0.235425 -0.7158705,-0.03635 q -0.3210505,-0.01287 -0.4083848,-0.03991 -0.089773,-0.02015 -0.1276014,-0.09944 -0.075657,-0.158576 0.064263,-0.225331 0.060632,-0.02893 0.2661505,-0.01819 0.2124079,0.01317 1.3962272,0.118273 l 6.098857,0.554247 z m -3.746954,0.007 -1.765289,-0.159768 -1.444879,-0.112238 0.648903,1.408101 0.683775,1.397187 z"
           style="font-style:normal;font-variant:normal;font-weight:normal;font-stretch:normal;font-family:Broadway;-inkscape-font-specification:Broadway;stroke-width:0.264547;stroke-miterlimit:4;stroke-dasharray:none"
           id="path886" />
        <path
           d="m 14.53685,-40.69652 q -0.248972,0.548129 -0.387708,1.15539 -0.132744,0.611446 -0.149259,1.286208 -0.0025,0.16315 -0.124598,0.184857 -0.167899,0.02985 -0.209504,-0.204195 -0.09497,-0.534226 0.201272,-1.584129 0.248862,-0.873524 0.883501,-2.057064 l -0.208603,0.03708 -0.864032,0.158844 -0.493522,0.08773 -0.550809,-3.098508 0.228954,-0.0407 1.660452,-0.284674 1.986979,-0.337471 3.07126,-0.556462 0.363588,2.045321 q 0.244201,1.373722 0.292697,2.089414 0.0485,0.715692 -0.07238,1.246297 -0.192896,0.863576 -0.877954,1.46823 -0.635423,0.559091 -1.418954,0.698376 -0.834409,0.14833 -1.658072,-0.203872 -1.323852,-0.567707 -1.673313,-2.090675 z m 0.229525,-0.539422 0.03833,0.245122 q 0.186317,1.048099 0.899852,1.666564 0.447727,0.392788 1.040629,0.539325 0.544399,0.139413 1.068448,0.04626 0.890376,-0.158278 1.489394,-0.863108 0.465715,-0.53942 0.571098,-1.245726 0.105383,-0.706306 -0.09461,-1.91993 l -3.417007,0.560189 -0.920903,0.163705 -0.238225,0.0476 q -0.245013,0.363722 -0.436999,0.760007 z"
           style="font-style:normal;font-variant:normal;font-weight:normal;font-stretch:normal;font-family:Broadway;-inkscape-font-specification:Broadway;stroke-width:0.264547;stroke-miterlimit:4;stroke-dasharray:none"
           id="path888" />
        <path
           d="m 19.664243,-28.357995 -1.591928,-0.287462 -1.512011,-0.263872 -3.510898,-0.560523 0.510539,-3.110634 4.059201,0.697645 1.384448,0.211515 1.175373,0.1772 0.09518,-0.675631 0.137786,-0.967135 0.01834,-0.14362 q 0.04017,-0.244771 0.223752,-0.214641 0.163181,0.02678 0.160144,0.172914 0.0035,0.04247 -0.02571,0.252381 l -1.026938,6.256964 q -0.05866,0.325525 -0.0942,0.382533 -0.05753,0.09529 -0.190119,0.07353 -0.17338,-0.02846 -0.130695,-0.288525 l 0.08811,-0.441137 0.212896,-1.169515 z"
           style="font-style:normal;font-variant:normal;font-weight:normal;font-stretch:normal;font-family:Broadway;-inkscape-font-specification:Broadway;stroke-width:0.264547;stroke-miterlimit:4;stroke-dasharray:none"
           id="path890" />
        <path
           d="m 15.649937,-22.089429 q -0.214927,-0.102077 -0.529074,-0.234877 l -0.285588,-0.120728 -3.298349,-1.355046 -0.66307,1.621622 -0.46863,1.148389 q -0.118716,0.280829 -0.290069,0.208392 -0.1427936,-0.06036 -0.101469,-0.211206 0.0093,-0.03533 0.157486,-0.399088 l 2.285772,-5.407137 0.245497,0.109391 1.587762,0.676808 1.695962,0.739379 2.971935,1.21145 -2.13285,5.045392 q -0.142861,0.337946 -0.177262,0.379507 -0.07484,0.0974 -0.208112,0.04106 -0.166593,-0.07043 -0.07806,-0.279856 l 0.01408,-0.03332 1.041392,-2.370576 -1.46749,-0.642797 -0.224081,0.516806 -0.675684,1.678004 -0.150174,0.368517 q -0.08451,0.199912 -0.143985,0.247704 -0.06149,0.05255 -0.161445,0.0103 -0.185632,-0.07847 -0.05283,-0.39262 l 0.168477,-0.372 z"
           style="font-style:normal;font-variant:normal;font-weight:normal;font-stretch:normal;font-family:Broadway;-inkscape-font-specification:Broadway;stroke-width:0.264547;stroke-miterlimit:4;stroke-dasharray:none"
           id="path892" />
        <path
           d="m 13.32646,-12.875204 -8.4510508,-1.25872 2.1755254,-2.844615 1.0494076,0.184535 1.0548002,-1.379207 0.9333336,-1.211877 0.161069,-0.2021 -0.2935907,-0.653909 q -0.1347238,-0.291699 -0.1504145,-0.381767 -0.022935,-0.0891 0.030433,-0.158884 0.1067357,-0.139563 0.2298792,-0.04538 0.05336,0.04081 0.137383,0.228676 0.08499,0.19511 0.530437,1.296949 l 2.283507,5.682327 z m -1.712315,-3.33282 -0.661536,-1.644426 -0.557963,-1.337517 -0.9582046,1.218878 -0.9326108,1.244958 z"
           style="font-style:normal;font-variant:normal;font-weight:normal;font-stretch:normal;font-family:Broadway;-inkscape-font-specification:Broadway;stroke-width:0.264547;stroke-miterlimit:4;stroke-dasharray:none"
           id="path894" />
      </g>
    </g>
    <text
       xml:space="preserve"
       style="font-style:normal;font-weight:normal;font-size:7.72687px;line-height:1.25;font-family:sans-serif;display:inline;fill:#ffffff;fill-opacity:1;stroke:none;stroke-width:0.264583"
       id="text1023"
       transform="matrix(0.47591045,-1.1083346,0.99303102,0.16849282,140.3444,0.33100032)"><textPath
         xlink:href="#path1019"
         id="textPath1025"
         style="font-style:normal;font-variant:normal;font-weight:normal;font-stretch:normal;font-size:7.72687px;font-family:Broadway;-inkscape-font-specification:Broadway;fill:#ffffff;fill-opacity:1;stroke-width:0.264583">1928</textPath></text>
  </g>
</svg>
